<?xml version="1.0" encoding="utf-8"?>
<!-- Generator: Adobe Illustrator 16.0.0, SVG Export Plug-In . SVG Version: 6.00 Build 0)  -->
<!DOCTYPE svg PUBLIC "-//W3C//DTD SVG 1.1//EN" "http://www.w3.org/Graphics/SVG/1.1/DTD/svg11.dtd">
<svg version="1.1" id="Ebene_1" xmlns="http://www.w3.org/2000/svg" xmlns:xlink="http://www.w3.org/1999/xlink" x="0px" y="0px"
	 width="848.967px" height="129.82px" viewBox="0 0 848.967 129.82" enable-background="new 0 0 848.967 129.82"
	 xml:space="preserve">
<g>
	<path d="M333.239,74.633c-2.93,1.465-8.791,2.93-16.299,2.93c-17.398,0-30.492-10.988-30.492-31.225
		c0-19.321,13.094-32.415,32.232-32.415c7.692,0,12.545,1.648,14.651,2.747l-1.923,6.501c-3.022-1.465-7.326-2.564-12.453-2.564
		c-14.468,0-24.083,9.249-24.083,25.456c0,15.108,8.699,24.815,23.716,24.815c4.853,0,9.797-1.007,13.002-2.564L333.239,74.633z"/>
	<path d="M394.042,45.148c0,21.244-12.911,32.507-28.661,32.507c-16.299,0-27.745-12.636-27.745-31.316
		c0-19.596,12.179-32.415,28.661-32.415C383.145,13.923,394.042,26.834,394.042,45.148z M346.152,46.155
		c0,13.186,7.142,24.998,19.687,24.998c12.636,0,19.779-11.629,19.779-25.639c0-12.27-6.41-25.089-19.688-25.089
		C352.745,20.425,346.152,32.603,346.152,46.155z"/>
	<path d="M413.092,57.235l-6.41,19.413h-8.241l20.969-61.717h9.615l21.061,61.717h-8.516l-6.594-19.413H413.092z M433.329,51.008
		l-6.044-17.764c-1.373-4.029-2.289-7.691-3.205-11.263h-0.183c-0.916,3.663-1.923,7.417-3.113,11.171l-6.043,17.855H433.329z"/>
	<path d="M500.909,74.633c-2.93,1.465-8.79,2.93-16.299,2.93c-17.397,0-30.492-10.988-30.492-31.225
		c0-19.321,13.095-32.415,32.232-32.415c7.691,0,12.544,1.648,14.65,2.747l-1.923,6.501c-3.021-1.465-7.325-2.564-12.453-2.564
		c-14.468,0-24.082,9.249-24.082,25.456c0,15.108,8.698,24.815,23.716,24.815c4.853,0,9.798-1.007,13.003-2.564L500.909,74.633z"/>
	<path d="M525.176,21.707h-18.771v-6.776h45.692v6.776h-18.862v54.941h-8.059V21.707z"/>
</g>
<g>
	<path d="M11.484,119.885c-0.04,0.464-0.112,0.916-0.216,1.355c-0.104,0.44-0.249,0.853-0.432,1.236
		c-0.184,0.384-0.428,0.729-0.732,1.032c-0.32,0.32-0.728,0.572-1.224,0.756s-1.048,0.275-1.656,0.275
		c-0.656,0-1.256-0.104-1.8-0.312s-1.056-0.616-1.536-1.224v6.672H2.16v-17.088h1.728v1.392c0.48-0.624,0.992-1.036,1.536-1.236
		c0.544-0.199,1.144-0.3,1.8-0.3c0.608,0,1.16,0.093,1.656,0.276s0.904,0.436,1.224,0.756c0.304,0.304,0.548,0.647,0.732,1.032
		c0.184,0.384,0.328,0.796,0.432,1.235c0.104,0.44,0.176,0.893,0.216,1.356s0.06,0.928,0.06,1.392
		C11.544,118.957,11.524,119.421,11.484,119.885z M9.72,116.813c-0.064-0.544-0.201-1.023-0.408-1.44
		c-0.208-0.415-0.508-0.751-0.9-1.008c-0.393-0.256-0.908-0.384-1.548-0.384s-1.156,0.128-1.548,0.384
		c-0.392,0.257-0.692,0.593-0.9,1.008c-0.208,0.417-0.348,0.896-0.42,1.44c-0.072,0.544-0.108,1.104-0.108,1.68
		s0.036,1.137,0.108,1.681c0.072,0.544,0.212,1.023,0.42,1.439c0.208,0.416,0.508,0.752,0.9,1.008
		c0.392,0.257,0.908,0.385,1.548,0.385s1.156-0.128,1.548-0.385c0.392-0.256,0.692-0.592,0.9-1.008
		c0.208-0.416,0.344-0.896,0.408-1.439c0.063-0.544,0.096-1.104,0.096-1.681S9.784,117.356,9.72,116.813z"/>
	<path d="M21.408,124.396c-1.04,0-1.8-0.3-2.28-0.9c-0.48-0.6-0.72-1.348-0.72-2.243v-13.944h1.728v13.872
		c0,0.576,0.112,1.008,0.336,1.296s0.64,0.432,1.248,0.432h0.936v1.488H21.408z"/>
	<path d="M35.496,124.396v-1.128c-0.48,0.479-0.972,0.813-1.476,0.996s-1.148,0.275-1.932,0.275c-0.816,0-1.484-0.084-2.004-0.252
		s-0.964-0.443-1.332-0.827c-0.288-0.288-0.508-0.645-0.66-1.068c-0.152-0.424-0.228-0.868-0.228-1.332
		c0-1.04,0.348-1.868,1.044-2.484c0.696-0.615,1.708-0.924,3.036-0.924h3.552v-1.128c0-0.864-0.232-1.512-0.696-1.944
		c-0.464-0.432-1.24-0.647-2.328-0.647c-0.768,0-1.368,0.1-1.8,0.3c-0.432,0.2-0.825,0.548-1.176,1.044l-1.176-1.08
		c0.528-0.688,1.116-1.151,1.764-1.392s1.452-0.36,2.412-0.36c1.6,0,2.788,0.332,3.564,0.996c0.776,0.664,1.164,1.645,1.164,2.94
		v8.016H35.496z M35.496,118.948h-3.312c-1.76,0-2.64,0.696-2.64,2.088c0,0.688,0.216,1.196,0.648,1.524
		c0.432,0.328,1.12,0.492,2.064,0.492c0.512,0,0.987-0.04,1.428-0.12c0.44-0.08,0.844-0.304,1.212-0.672
		c0.4-0.384,0.6-1.064,0.6-2.04V118.948z"/>
	<path d="M47.952,124.396c-0.512,0-0.957-0.084-1.332-0.252c-0.376-0.168-0.688-0.396-0.936-0.684
		c-0.249-0.288-0.436-0.624-0.564-1.009c-0.128-0.384-0.192-0.792-0.192-1.224v-7.248h-1.488v-1.32h1.488v-3.695h1.728v3.695h2.52
		v1.32h-2.52v7.2c0,0.544,0.128,0.968,0.384,1.271c0.256,0.305,0.664,0.456,1.224,0.456h0.912v1.488H47.952z"/>
	<path d="M57.935,113.98v10.416h-1.728V113.98h-1.512v-1.32h1.512v-2.231c0-0.433,0.06-0.84,0.18-1.225
		c0.12-0.384,0.308-0.72,0.564-1.008c0.256-0.288,0.568-0.516,0.936-0.684c0.368-0.168,0.808-0.252,1.32-0.252h1.248v1.487h-0.936
		c-0.56,0-0.964,0.152-1.212,0.456c-0.249,0.305-0.372,0.729-0.372,1.272v2.184h2.52v1.32H57.935z"/>
	<path d="M74.867,121.072c-0.185,0.809-0.572,1.517-1.164,2.124c-0.417,0.416-0.904,0.744-1.464,0.984s-1.2,0.359-1.92,0.359
		c-0.72,0-1.36-0.119-1.92-0.359s-1.048-0.568-1.464-0.984c-0.304-0.304-0.548-0.636-0.732-0.996
		c-0.184-0.359-0.328-0.735-0.432-1.128c-0.104-0.392-0.176-0.804-0.216-1.235c-0.041-0.433-0.06-0.88-0.06-1.345
		c0-0.447,0.02-0.892,0.06-1.332c0.04-0.439,0.111-0.855,0.216-1.248c0.104-0.392,0.248-0.768,0.432-1.128
		c0.184-0.359,0.428-0.691,0.732-0.996c0.416-0.415,0.904-0.743,1.464-0.983s1.2-0.36,1.92-0.36c0.72,0,1.36,0.12,1.92,0.36
		s1.048,0.568,1.464,0.983c0.592,0.608,0.979,1.316,1.164,2.124c0.184,0.809,0.276,1.668,0.276,2.58S75.051,120.265,74.867,121.072z
		 M73.391,117.484c-0.016-0.336-0.056-0.664-0.12-0.984c-0.064-0.319-0.16-0.619-0.288-0.899c-0.128-0.28-0.296-0.532-0.504-0.756
		c-0.576-0.576-1.296-0.864-2.16-0.864c-0.848,0-1.56,0.288-2.136,0.864c-0.225,0.224-0.396,0.476-0.516,0.756
		s-0.216,0.58-0.288,0.899c-0.072,0.32-0.116,0.648-0.132,0.984c-0.016,0.336-0.024,0.672-0.024,1.008s0.008,0.672,0.024,1.008
		c0.016,0.337,0.06,0.665,0.132,0.984c0.072,0.32,0.168,0.624,0.288,0.912s0.292,0.536,0.516,0.744
		c0.576,0.576,1.288,0.864,2.136,0.864c0.864,0,1.584-0.288,2.16-0.864c0.208-0.208,0.375-0.456,0.504-0.744
		c0.128-0.288,0.224-0.592,0.288-0.912c0.064-0.319,0.104-0.647,0.12-0.984c0.016-0.336,0.024-0.672,0.024-1.008
		S73.407,117.82,73.391,117.484z"/>
	<path d="M88.655,114.845c-0.32-0.32-0.624-0.544-0.912-0.672s-0.664-0.192-1.128-0.192c-0.432,0-0.825,0.08-1.176,0.24
		c-0.352,0.16-0.648,0.384-0.888,0.672c-0.24,0.288-0.428,0.624-0.564,1.008s-0.204,0.801-0.204,1.248v7.248h-1.728v-11.808h1.728
		v1.439c0.32-0.495,0.78-0.884,1.38-1.164c0.6-0.279,1.244-0.42,1.932-0.42c0.56,0,1.068,0.08,1.524,0.24s0.892,0.448,1.308,0.864
		L88.655,114.845z"/>
	<path d="M110.543,124.396v-7.272c0-1.056-0.26-1.844-0.78-2.363s-1.228-0.78-2.124-0.78c-0.864,0-1.572,0.256-2.124,0.768
		c-0.552,0.513-0.828,1.24-0.828,2.185v7.464h-1.728v-7.272c0-1.056-0.26-1.844-0.78-2.363s-1.228-0.78-2.124-0.78
		s-1.612,0.264-2.148,0.792s-0.804,1.313-0.804,2.352v7.272h-1.728v-11.808h1.728v1.296c0.416-0.48,0.908-0.84,1.476-1.08
		s1.188-0.36,1.86-0.36c0.816,0,1.532,0.164,2.148,0.492c0.616,0.328,1.108,0.82,1.476,1.476c0.928-1.312,2.224-1.968,3.888-1.968
		c0.64,0,1.216,0.096,1.728,0.288s0.952,0.464,1.32,0.816c0.848,0.815,1.272,1.912,1.272,3.288v7.56H110.543z"/>
	<path d="M130.991,113.98v10.416h-1.728V113.98h-1.512v-1.32h1.512v-2.231c0-0.433,0.06-0.84,0.18-1.225
		c0.12-0.384,0.308-0.72,0.564-1.008c0.256-0.288,0.568-0.516,0.936-0.684c0.368-0.168,0.808-0.252,1.32-0.252h1.248v1.487h-0.936
		c-0.56,0-0.964,0.152-1.212,0.456c-0.249,0.305-0.372,0.729-0.372,1.272v2.184h2.52v1.32H130.991z"/>
	<path d="M147.923,121.072c-0.185,0.809-0.572,1.517-1.164,2.124c-0.417,0.416-0.904,0.744-1.464,0.984s-1.2,0.359-1.92,0.359
		c-0.72,0-1.36-0.119-1.92-0.359s-1.048-0.568-1.464-0.984c-0.304-0.304-0.548-0.636-0.732-0.996
		c-0.184-0.359-0.328-0.735-0.432-1.128c-0.104-0.392-0.176-0.804-0.216-1.235c-0.041-0.433-0.06-0.88-0.06-1.345
		c0-0.447,0.02-0.892,0.06-1.332c0.04-0.439,0.111-0.855,0.216-1.248c0.104-0.392,0.248-0.768,0.432-1.128
		c0.184-0.359,0.428-0.691,0.732-0.996c0.416-0.415,0.904-0.743,1.464-0.983s1.2-0.36,1.92-0.36c0.72,0,1.36,0.12,1.92,0.36
		s1.048,0.568,1.464,0.983c0.592,0.608,0.979,1.316,1.164,2.124c0.184,0.809,0.276,1.668,0.276,2.58
		S148.106,120.265,147.923,121.072z M146.447,117.484c-0.016-0.336-0.056-0.664-0.12-0.984c-0.064-0.319-0.16-0.619-0.288-0.899
		c-0.128-0.28-0.296-0.532-0.504-0.756c-0.576-0.576-1.296-0.864-2.16-0.864c-0.848,0-1.56,0.288-2.136,0.864
		c-0.225,0.224-0.396,0.476-0.516,0.756s-0.216,0.58-0.288,0.899c-0.072,0.32-0.116,0.648-0.132,0.984
		c-0.016,0.336-0.024,0.672-0.024,1.008s0.008,0.672,0.024,1.008c0.016,0.337,0.06,0.665,0.132,0.984
		c0.072,0.32,0.168,0.624,0.288,0.912s0.292,0.536,0.516,0.744c0.576,0.576,1.288,0.864,2.136,0.864c0.864,0,1.584-0.288,2.16-0.864
		c0.208-0.208,0.375-0.456,0.504-0.744c0.128-0.288,0.224-0.592,0.288-0.912c0.064-0.319,0.104-0.647,0.12-0.984
		c0.016-0.336,0.024-0.672,0.024-1.008S146.462,117.82,146.447,117.484z"/>
	<path d="M161.71,114.845c-0.32-0.32-0.624-0.544-0.912-0.672s-0.664-0.192-1.128-0.192c-0.432,0-0.825,0.08-1.176,0.24
		c-0.352,0.16-0.648,0.384-0.888,0.672c-0.24,0.288-0.428,0.624-0.564,1.008s-0.204,0.801-0.204,1.248v7.248h-1.728v-11.808h1.728
		v1.439c0.32-0.495,0.78-0.884,1.38-1.164c0.6-0.279,1.244-0.42,1.932-0.42c0.56,0,1.068,0.08,1.524,0.24s0.892,0.448,1.308,0.864
		L161.71,114.845z"/>
	<path d="M184.307,124.156c-0.584,0.256-1.284,0.384-2.1,0.384c-0.752,0-1.444-0.124-2.076-0.371
		c-0.632-0.248-1.184-0.624-1.656-1.129c-0.472-0.504-0.84-1.136-1.104-1.896c-0.264-0.76-0.396-1.645-0.396-2.652
		s0.132-1.888,0.396-2.64c0.264-0.752,0.632-1.38,1.104-1.884c0.472-0.504,1.023-0.884,1.656-1.141
		c0.632-0.256,1.324-0.384,2.076-0.384c0.816,0,1.516,0.128,2.1,0.384c0.583,0.257,1.18,0.713,1.788,1.368l-1.176,1.104
		c-0.448-0.496-0.872-0.84-1.272-1.032c-0.4-0.192-0.88-0.288-1.44-0.288c-0.576,0-1.096,0.112-1.56,0.336
		c-0.464,0.225-0.856,0.561-1.176,1.008c-0.272,0.384-0.468,0.82-0.588,1.309s-0.18,1.107-0.18,1.859c0,0.753,0.06,1.372,0.18,1.86
		s0.316,0.924,0.588,1.308c0.32,0.448,0.712,0.784,1.176,1.009c0.464,0.224,0.984,0.336,1.56,0.336c0.56,0,1.04-0.101,1.44-0.301
		c0.4-0.199,0.824-0.548,1.272-1.044l1.176,1.128C185.486,123.444,184.89,123.9,184.307,124.156z"/>
	<path d="M200.986,121.072c-0.185,0.809-0.572,1.517-1.164,2.124c-0.417,0.416-0.904,0.744-1.464,0.984s-1.2,0.359-1.92,0.359
		c-0.72,0-1.36-0.119-1.92-0.359s-1.048-0.568-1.464-0.984c-0.304-0.304-0.548-0.636-0.732-0.996
		c-0.184-0.359-0.328-0.735-0.432-1.128c-0.104-0.392-0.176-0.804-0.216-1.235c-0.041-0.433-0.06-0.88-0.06-1.345
		c0-0.447,0.02-0.892,0.06-1.332c0.04-0.439,0.111-0.855,0.216-1.248c0.104-0.392,0.248-0.768,0.432-1.128
		c0.184-0.359,0.428-0.691,0.732-0.996c0.416-0.415,0.904-0.743,1.464-0.983s1.2-0.36,1.92-0.36c0.72,0,1.36,0.12,1.92,0.36
		s1.048,0.568,1.464,0.983c0.592,0.608,0.979,1.316,1.164,2.124c0.184,0.809,0.276,1.668,0.276,2.58S201.17,120.265,200.986,121.072
		z M199.51,117.484c-0.016-0.336-0.056-0.664-0.12-0.984c-0.064-0.319-0.16-0.619-0.288-0.899c-0.128-0.28-0.296-0.532-0.504-0.756
		c-0.576-0.576-1.296-0.864-2.16-0.864c-0.848,0-1.56,0.288-2.136,0.864c-0.225,0.224-0.396,0.476-0.516,0.756
		s-0.216,0.58-0.288,0.899c-0.072,0.32-0.116,0.648-0.132,0.984c-0.016,0.336-0.024,0.672-0.024,1.008s0.008,0.672,0.024,1.008
		c0.016,0.337,0.06,0.665,0.132,0.984c0.072,0.32,0.168,0.624,0.288,0.912s0.292,0.536,0.516,0.744
		c0.576,0.576,1.288,0.864,2.136,0.864c0.864,0,1.584-0.288,2.16-0.864c0.208-0.208,0.375-0.456,0.504-0.744
		c0.128-0.288,0.224-0.592,0.288-0.912c0.064-0.319,0.104-0.647,0.12-0.984c0.016-0.336,0.024-0.672,0.024-1.008
		S199.526,117.82,199.51,117.484z"/>
	<path d="M216.922,121.072c-0.185,0.809-0.572,1.517-1.164,2.124c-0.417,0.416-0.904,0.744-1.464,0.984s-1.2,0.359-1.92,0.359
		c-0.72,0-1.36-0.119-1.92-0.359s-1.048-0.568-1.464-0.984c-0.304-0.304-0.548-0.636-0.732-0.996
		c-0.184-0.359-0.328-0.735-0.432-1.128c-0.104-0.392-0.176-0.804-0.216-1.235c-0.041-0.433-0.06-0.88-0.06-1.345
		c0-0.447,0.02-0.892,0.06-1.332c0.04-0.439,0.111-0.855,0.216-1.248c0.104-0.392,0.248-0.768,0.432-1.128
		c0.184-0.359,0.428-0.691,0.732-0.996c0.416-0.415,0.904-0.743,1.464-0.983s1.2-0.36,1.92-0.36c0.72,0,1.36,0.12,1.92,0.36
		s1.048,0.568,1.464,0.983c0.592,0.608,0.979,1.316,1.164,2.124c0.184,0.809,0.276,1.668,0.276,2.58
		S217.106,120.265,216.922,121.072z M215.446,117.484c-0.016-0.336-0.056-0.664-0.12-0.984c-0.064-0.319-0.16-0.619-0.288-0.899
		c-0.128-0.28-0.296-0.532-0.504-0.756c-0.576-0.576-1.296-0.864-2.16-0.864c-0.848,0-1.56,0.288-2.136,0.864
		c-0.225,0.224-0.396,0.476-0.516,0.756s-0.216,0.58-0.288,0.899c-0.072,0.32-0.116,0.648-0.132,0.984
		c-0.016,0.336-0.024,0.672-0.024,1.008s0.008,0.672,0.024,1.008c0.016,0.337,0.06,0.665,0.132,0.984
		c0.072,0.32,0.168,0.624,0.288,0.912s0.292,0.536,0.516,0.744c0.576,0.576,1.288,0.864,2.136,0.864c0.864,0,1.584-0.288,2.16-0.864
		c0.208-0.208,0.375-0.456,0.504-0.744c0.128-0.288,0.224-0.592,0.288-0.912c0.064-0.319,0.104-0.647,0.12-0.984
		c0.016-0.336,0.024-0.672,0.024-1.008S215.462,117.82,215.446,117.484z"/>
	<path d="M233.434,119.885c-0.04,0.464-0.112,0.916-0.216,1.355c-0.104,0.44-0.249,0.853-0.432,1.236
		c-0.184,0.384-0.428,0.729-0.732,1.032c-0.32,0.32-0.728,0.572-1.224,0.756s-1.048,0.275-1.656,0.275
		c-0.656,0-1.256-0.104-1.8-0.312s-1.056-0.616-1.536-1.224v6.672h-1.728v-17.088h1.728v1.392c0.48-0.624,0.992-1.036,1.536-1.236
		c0.544-0.199,1.144-0.3,1.8-0.3c0.608,0,1.16,0.093,1.656,0.276s0.904,0.436,1.224,0.756c0.304,0.304,0.548,0.647,0.732,1.032
		c0.184,0.384,0.328,0.796,0.432,1.235c0.104,0.44,0.176,0.893,0.216,1.356s0.06,0.928,0.06,1.392
		C233.494,118.957,233.474,119.421,233.434,119.885z M231.67,116.813c-0.064-0.544-0.201-1.023-0.408-1.44
		c-0.208-0.415-0.508-0.751-0.9-1.008c-0.393-0.256-0.908-0.384-1.548-0.384s-1.156,0.128-1.548,0.384
		c-0.392,0.257-0.692,0.593-0.9,1.008c-0.208,0.417-0.348,0.896-0.42,1.44c-0.072,0.544-0.108,1.104-0.108,1.68
		s0.036,1.137,0.108,1.681c0.072,0.544,0.212,1.023,0.42,1.439c0.208,0.416,0.508,0.752,0.9,1.008
		c0.392,0.257,0.908,0.385,1.548,0.385s1.156-0.128,1.548-0.385c0.392-0.256,0.692-0.592,0.9-1.008
		c0.208-0.416,0.344-0.896,0.408-1.439c0.063-0.544,0.096-1.104,0.096-1.681S231.733,117.356,231.67,116.813z"/>
	<path d="M241.486,118.948c0,1.289,0.295,2.287,0.888,2.994c0.592,0.708,1.456,1.063,2.592,1.063c0.688,0,1.26-0.108,1.716-0.324
		s0.916-0.556,1.38-1.021l1.176,1.032c-0.304,0.306-0.604,0.572-0.9,0.8s-0.612,0.419-0.948,0.573s-0.708,0.272-1.116,0.354
		c-0.408,0.081-0.86,0.121-1.356,0.121c-0.784,0-1.492-0.119-2.124-0.359c-0.632-0.24-1.172-0.608-1.62-1.104
		c-0.448-0.495-0.796-1.124-1.044-1.884s-0.372-1.659-0.372-2.7c0-1.92,0.432-3.407,1.296-4.464
		c0.864-1.056,2.048-1.584,3.552-1.584c1.536,0,2.728,0.513,3.576,1.536c0.848,1.024,1.272,2.416,1.272,4.176v0.792H241.486z
		 M247.678,117.028c-0.016-0.176-0.036-0.336-0.06-0.479c-0.024-0.145-0.056-0.284-0.096-0.42s-0.092-0.284-0.156-0.444
		c-0.225-0.544-0.584-0.976-1.08-1.296c-0.496-0.32-1.056-0.48-1.68-0.48s-1.184,0.16-1.68,0.48c-0.496,0.32-0.856,0.752-1.08,1.296
		c-0.128,0.32-0.216,0.608-0.264,0.864s-0.08,0.624-0.096,1.104h6.24C247.709,117.412,247.693,117.205,247.678,117.028z"/>
	<path d="M262.941,114.845c-0.32-0.32-0.624-0.544-0.912-0.672s-0.664-0.192-1.128-0.192c-0.432,0-0.825,0.08-1.176,0.24
		c-0.352,0.16-0.648,0.384-0.888,0.672c-0.24,0.288-0.428,0.624-0.564,1.008s-0.204,0.801-0.204,1.248v7.248h-1.728v-11.808h1.728
		v1.439c0.32-0.495,0.78-0.884,1.38-1.164c0.6-0.279,1.244-0.42,1.932-0.42c0.56,0,1.068,0.08,1.524,0.24s0.892,0.448,1.308,0.864
		L262.941,114.845z"/>
	<path d="M276.118,124.396v-1.128c-0.48,0.479-0.972,0.813-1.476,0.996s-1.148,0.275-1.932,0.275c-0.816,0-1.484-0.084-2.004-0.252
		s-0.964-0.443-1.332-0.827c-0.288-0.288-0.508-0.645-0.66-1.068c-0.152-0.424-0.228-0.868-0.228-1.332
		c0-1.04,0.348-1.868,1.044-2.484c0.696-0.615,1.708-0.924,3.036-0.924h3.552v-1.128c0-0.864-0.232-1.512-0.696-1.944
		c-0.464-0.432-1.24-0.647-2.328-0.647c-0.768,0-1.368,0.1-1.8,0.3c-0.432,0.2-0.825,0.548-1.176,1.044l-1.176-1.08
		c0.528-0.688,1.116-1.151,1.764-1.392s1.452-0.36,2.412-0.36c1.6,0,2.788,0.332,3.564,0.996c0.776,0.664,1.164,1.645,1.164,2.94
		v8.016H276.118z M276.118,118.948h-3.312c-1.76,0-2.64,0.696-2.64,2.088c0,0.688,0.216,1.196,0.648,1.524
		c0.432,0.328,1.12,0.492,2.064,0.492c0.512,0,0.987-0.04,1.428-0.12c0.44-0.08,0.844-0.304,1.212-0.672
		c0.4-0.384,0.6-1.064,0.6-2.04V118.948z"/>
	<path d="M288.574,124.396c-0.512,0-0.957-0.084-1.332-0.252c-0.376-0.168-0.688-0.396-0.936-0.684
		c-0.249-0.288-0.436-0.624-0.564-1.009c-0.128-0.384-0.192-0.792-0.192-1.224v-7.248h-1.488v-1.32h1.488v-3.695h1.728v3.695h2.52
		v1.32h-2.52v7.2c0,0.544,0.128,0.968,0.384,1.271c0.256,0.305,0.664,0.456,1.224,0.456h0.912v1.488H288.574z"/>
	<path d="M296.349,109.229v-1.944h1.944v1.944H296.349z M296.445,124.396v-11.808h1.728v11.808H296.445z"/>
	<path d="M314.481,121.072c-0.185,0.809-0.572,1.517-1.164,2.124c-0.417,0.416-0.904,0.744-1.464,0.984s-1.2,0.359-1.92,0.359
		c-0.72,0-1.36-0.119-1.92-0.359s-1.048-0.568-1.464-0.984c-0.304-0.304-0.548-0.636-0.732-0.996
		c-0.184-0.359-0.328-0.735-0.432-1.128c-0.104-0.392-0.176-0.804-0.216-1.235c-0.041-0.433-0.06-0.88-0.06-1.345
		c0-0.447,0.02-0.892,0.06-1.332c0.04-0.439,0.111-0.855,0.216-1.248c0.104-0.392,0.248-0.768,0.432-1.128
		c0.184-0.359,0.428-0.691,0.732-0.996c0.416-0.415,0.904-0.743,1.464-0.983s1.2-0.36,1.92-0.36c0.72,0,1.36,0.12,1.92,0.36
		s1.048,0.568,1.464,0.983c0.592,0.608,0.979,1.316,1.164,2.124c0.184,0.809,0.276,1.668,0.276,2.58
		S314.665,120.265,314.481,121.072z M313.005,117.484c-0.016-0.336-0.056-0.664-0.12-0.984c-0.064-0.319-0.16-0.619-0.288-0.899
		c-0.128-0.28-0.296-0.532-0.504-0.756c-0.576-0.576-1.296-0.864-2.16-0.864c-0.848,0-1.56,0.288-2.136,0.864
		c-0.225,0.224-0.396,0.476-0.516,0.756s-0.216,0.58-0.288,0.899c-0.072,0.32-0.116,0.648-0.132,0.984
		c-0.016,0.336-0.024,0.672-0.024,1.008s0.008,0.672,0.024,1.008c0.016,0.337,0.06,0.665,0.132,0.984
		c0.072,0.32,0.168,0.624,0.288,0.912s0.292,0.536,0.516,0.744c0.576,0.576,1.288,0.864,2.136,0.864c0.864,0,1.584-0.288,2.16-0.864
		c0.208-0.208,0.375-0.456,0.504-0.744c0.128-0.288,0.224-0.592,0.288-0.912c0.064-0.319,0.104-0.647,0.12-0.984
		c0.016-0.336,0.024-0.672,0.024-1.008S313.021,117.82,313.005,117.484z"/>
	<path d="M329.229,124.396v-7.272c0-1.056-0.26-1.844-0.78-2.363s-1.228-0.78-2.124-0.78s-1.608,0.264-2.136,0.792
		c-0.528,0.528-0.792,1.313-0.792,2.352v7.272h-1.728v-11.808h1.728v1.296c0.416-0.48,0.904-0.84,1.464-1.08s1.176-0.36,1.848-0.36
		c1.28,0,2.288,0.368,3.024,1.104c0.816,0.8,1.224,1.896,1.224,3.288v7.56H329.229z"/>
	<path d="M338.325,127.853v-5.568h2.112v3.672L338.325,127.853z"/>
	<path d="M358.197,118.948c0,1.289,0.295,2.287,0.888,2.994c0.592,0.708,1.456,1.063,2.592,1.063c0.688,0,1.26-0.108,1.716-0.324
		s0.916-0.556,1.38-1.021l1.176,1.032c-0.304,0.306-0.604,0.572-0.9,0.8s-0.612,0.419-0.948,0.573s-0.708,0.272-1.116,0.354
		c-0.408,0.081-0.86,0.121-1.356,0.121c-0.784,0-1.492-0.119-2.124-0.359c-0.632-0.24-1.172-0.608-1.62-1.104
		c-0.448-0.495-0.796-1.124-1.044-1.884s-0.372-1.659-0.372-2.7c0-1.92,0.432-3.407,1.296-4.464
		c0.864-1.056,2.048-1.584,3.552-1.584c1.536,0,2.728,0.513,3.576,1.536c0.848,1.024,1.272,2.416,1.272,4.176v0.792H358.197z
		 M364.389,117.028c-0.016-0.176-0.036-0.336-0.06-0.479c-0.024-0.145-0.056-0.284-0.096-0.42s-0.092-0.284-0.156-0.444
		c-0.225-0.544-0.584-0.976-1.08-1.296c-0.496-0.32-1.056-0.48-1.68-0.48s-1.184,0.16-1.68,0.48c-0.496,0.32-0.856,0.752-1.08,1.296
		c-0.128,0.32-0.216,0.608-0.264,0.864s-0.08,0.624-0.096,1.104h6.24C364.42,117.412,364.404,117.205,364.389,117.028z"/>
	<path d="M379.1,124.396l-2.832-4.584l-2.88,4.584H371.3l4.008-6.024l-3.84-5.783h2.088l2.712,4.367l2.664-4.367h2.088l-3.84,5.783
		l4.008,6.024H379.1z"/>
	<path d="M393.561,124.156c-0.584,0.256-1.284,0.384-2.1,0.384c-0.752,0-1.444-0.124-2.076-0.371
		c-0.632-0.248-1.184-0.624-1.656-1.129c-0.472-0.504-0.84-1.136-1.104-1.896c-0.264-0.76-0.396-1.645-0.396-2.652
		s0.132-1.888,0.396-2.64c0.264-0.752,0.632-1.38,1.104-1.884c0.472-0.504,1.023-0.884,1.656-1.141
		c0.632-0.256,1.324-0.384,2.076-0.384c0.816,0,1.516,0.128,2.1,0.384c0.583,0.257,1.18,0.713,1.788,1.368l-1.176,1.104
		c-0.448-0.496-0.872-0.84-1.272-1.032c-0.4-0.192-0.88-0.288-1.44-0.288c-0.576,0-1.096,0.112-1.56,0.336
		c-0.464,0.225-0.856,0.561-1.176,1.008c-0.272,0.384-0.468,0.82-0.588,1.309s-0.18,1.107-0.18,1.859c0,0.753,0.06,1.372,0.18,1.86
		s0.316,0.924,0.588,1.308c0.32,0.448,0.712,0.784,1.176,1.009c0.464,0.224,0.984,0.336,1.56,0.336c0.56,0,1.04-0.101,1.44-0.301
		c0.4-0.199,0.824-0.548,1.272-1.044l1.176,1.128C394.741,123.444,394.145,123.9,393.561,124.156z"/>
	<path d="M409.413,124.396v-7.296c0-1.04-0.256-1.82-0.768-2.34c-0.512-0.52-1.216-0.78-2.112-0.78s-1.612,0.264-2.148,0.792
		s-0.804,1.305-0.804,2.328v7.296h-1.728v-17.088h1.728v6.576c0.848-0.96,1.952-1.44,3.312-1.44c1.344,0,2.388,0.393,3.132,1.176
		c0.744,0.784,1.116,1.849,1.116,3.192v7.584H409.413z"/>
	<path d="M425.252,124.396v-1.128c-0.48,0.479-0.973,0.813-1.477,0.996s-1.148,0.275-1.932,0.275c-0.816,0-1.484-0.084-2.004-0.252
		s-0.964-0.443-1.332-0.827c-0.288-0.288-0.508-0.645-0.66-1.068c-0.152-0.424-0.228-0.868-0.228-1.332
		c0-1.04,0.348-1.868,1.044-2.484c0.695-0.615,1.707-0.924,3.035-0.924h3.553v-1.128c0-0.864-0.232-1.512-0.695-1.944
		c-0.465-0.432-1.24-0.647-2.328-0.647c-0.768,0-1.369,0.1-1.801,0.3s-0.824,0.548-1.176,1.044l-1.176-1.08
		c0.527-0.688,1.115-1.151,1.764-1.392s1.453-0.36,2.412-0.36c1.6,0,2.787,0.332,3.564,0.996c0.775,0.664,1.164,1.645,1.164,2.94
		v8.016H425.252z M425.252,118.948h-3.313c-1.76,0-2.64,0.696-2.64,2.088c0,0.688,0.216,1.196,0.647,1.524
		c0.434,0.328,1.121,0.492,2.064,0.492c0.512,0,0.988-0.04,1.428-0.12s0.844-0.304,1.213-0.672c0.398-0.384,0.6-1.064,0.6-2.04
		V118.948z"/>
	<path d="M441.956,124.396v-7.272c0-1.056-0.26-1.844-0.779-2.363c-0.521-0.52-1.229-0.78-2.124-0.78
		c-0.896,0-1.608,0.264-2.137,0.792c-0.527,0.528-0.792,1.313-0.792,2.352v7.272h-1.728v-11.808h1.728v1.296
		c0.416-0.48,0.904-0.84,1.464-1.08c0.561-0.24,1.177-0.36,1.849-0.36c1.279,0,2.288,0.368,3.023,1.104
		c0.816,0.8,1.225,1.896,1.225,3.288v7.56H441.956z"/>
	<path d="M459.476,126.784c-0.225,0.616-0.544,1.148-0.96,1.597c-0.416,0.447-0.933,0.8-1.548,1.056
		c-0.616,0.256-1.309,0.384-2.076,0.384c-0.448,0-0.849-0.028-1.2-0.085c-0.353-0.058-0.684-0.15-0.996-0.28
		c-0.312-0.13-0.616-0.297-0.912-0.5s-0.596-0.451-0.899-0.742l1.128-1.104c0.207,0.192,0.411,0.36,0.611,0.504
		c0.2,0.145,0.408,0.268,0.624,0.372c0.217,0.104,0.452,0.18,0.708,0.229c0.256,0.048,0.553,0.071,0.889,0.071
		c0.576,0,1.067-0.095,1.476-0.285s0.744-0.444,1.008-0.761c0.265-0.318,0.456-0.694,0.576-1.131s0.18-0.908,0.18-1.415v-1.832
		c-0.479,0.599-0.992,1-1.535,1.205c-0.545,0.205-1.137,0.307-1.776,0.307c-0.608,0-1.156-0.096-1.644-0.287
		c-0.488-0.192-0.893-0.448-1.213-0.769c-0.592-0.592-0.979-1.32-1.164-2.184c-0.184-0.864-0.275-1.776-0.275-2.736
		s0.092-1.872,0.275-2.736c0.185-0.863,0.572-1.592,1.164-2.184c0.32-0.32,0.729-0.572,1.225-0.756
		c0.495-0.184,1.048-0.276,1.656-0.276c0.655,0,1.251,0.101,1.787,0.3c0.536,0.2,1.045,0.612,1.524,1.236v-1.392h1.704v12.168
		C459.812,125.492,459.7,126.168,459.476,126.784z M457.988,116.784c-0.064-0.537-0.2-1.011-0.408-1.42s-0.504-0.742-0.888-0.999
		c-0.384-0.256-0.896-0.385-1.536-0.385s-1.156,0.129-1.548,0.385c-0.393,0.257-0.692,0.59-0.9,0.999s-0.344,0.883-0.407,1.42
		c-0.064,0.537-0.097,1.079-0.097,1.624c0,0.563,0.032,1.107,0.097,1.637c0.063,0.529,0.199,0.999,0.407,1.408
		s0.508,0.742,0.9,0.998c0.392,0.257,0.908,0.386,1.548,0.386s1.152-0.129,1.536-0.386c0.384-0.256,0.68-0.589,0.888-0.998
		s0.344-0.879,0.408-1.408c0.063-0.529,0.096-1.074,0.096-1.637C458.083,117.863,458.051,117.321,457.988,116.784z"/>
	<path d="M468.428,118.948c0,1.289,0.296,2.287,0.888,2.994c0.592,0.708,1.456,1.063,2.592,1.063c0.688,0,1.261-0.108,1.716-0.324
		c0.456-0.216,0.916-0.556,1.381-1.021l1.176,1.032c-0.305,0.306-0.604,0.572-0.9,0.8s-0.611,0.419-0.948,0.573
		c-0.336,0.154-0.708,0.272-1.115,0.354c-0.408,0.081-0.86,0.121-1.356,0.121c-0.784,0-1.492-0.119-2.124-0.359
		s-1.172-0.608-1.62-1.104c-0.448-0.495-0.796-1.124-1.044-1.884s-0.372-1.659-0.372-2.7c0-1.92,0.433-3.407,1.296-4.464
		c0.864-1.056,2.048-1.584,3.553-1.584c1.536,0,2.728,0.513,3.575,1.536c0.849,1.024,1.272,2.416,1.272,4.176v0.792H468.428z
		 M474.62,117.028c-0.016-0.176-0.035-0.336-0.06-0.479c-0.024-0.145-0.057-0.284-0.096-0.42c-0.04-0.136-0.093-0.284-0.156-0.444
		c-0.225-0.544-0.584-0.976-1.08-1.296s-1.056-0.48-1.68-0.48s-1.185,0.16-1.681,0.48s-0.855,0.752-1.08,1.296
		c-0.128,0.32-0.216,0.608-0.264,0.864s-0.08,0.624-0.096,1.104h6.24C474.652,117.412,474.635,117.205,474.62,117.028z"/>
	<path d="M499.172,124.396v-1.128c-0.48,0.479-0.973,0.813-1.477,0.996s-1.148,0.275-1.932,0.275c-0.816,0-1.484-0.084-2.004-0.252
		c-0.521-0.168-0.965-0.443-1.332-0.827c-0.288-0.288-0.509-0.645-0.66-1.068c-0.152-0.424-0.229-0.868-0.229-1.332
		c0-1.04,0.349-1.868,1.044-2.484c0.696-0.615,1.708-0.924,3.036-0.924h3.553v-1.128c0-0.864-0.232-1.512-0.696-1.944
		c-0.465-0.432-1.24-0.647-2.328-0.647c-0.768,0-1.368,0.1-1.8,0.3c-0.433,0.2-0.824,0.548-1.176,1.044l-1.177-1.08
		c0.528-0.688,1.116-1.151,1.765-1.392c0.647-0.24,1.452-0.36,2.412-0.36c1.6,0,2.787,0.332,3.563,0.996s1.164,1.645,1.164,2.94
		v8.016H499.172z M499.172,118.948h-3.313c-1.76,0-2.64,0.696-2.64,2.088c0,0.688,0.216,1.196,0.647,1.524
		c0.433,0.328,1.12,0.492,2.064,0.492c0.512,0,0.987-0.04,1.428-0.12c0.439-0.08,0.844-0.304,1.212-0.672
		c0.399-0.384,0.601-1.064,0.601-2.04V118.948z"/>
	<path d="M515.875,124.396v-7.272c0-1.056-0.26-1.844-0.779-2.363c-0.521-0.52-1.229-0.78-2.124-0.78
		c-0.896,0-1.608,0.264-2.137,0.792c-0.527,0.528-0.792,1.313-0.792,2.352v7.272h-1.728v-11.808h1.728v1.296
		c0.416-0.48,0.904-0.84,1.464-1.08c0.561-0.24,1.177-0.36,1.849-0.36c1.279,0,2.288,0.368,3.023,1.104
		c0.816,0.8,1.225,1.896,1.225,3.288v7.56H515.875z"/>
	<path d="M532.052,124.396v-1.416c-0.479,0.624-0.993,1.04-1.544,1.248c-0.55,0.208-1.152,0.312-1.806,0.312
		c-0.606,0-1.157-0.092-1.651-0.275s-0.901-0.436-1.22-0.756c-0.303-0.304-0.547-0.648-0.729-1.032
		c-0.185-0.384-0.328-0.796-0.432-1.236c-0.104-0.439-0.175-0.892-0.215-1.355s-0.06-0.928-0.06-1.393
		c0-0.464,0.02-0.928,0.06-1.392s0.112-0.916,0.216-1.356c0.104-0.439,0.248-0.852,0.433-1.235c0.184-0.385,0.428-0.729,0.731-1.032
		c0.32-0.32,0.729-0.572,1.225-0.756c0.495-0.184,1.048-0.276,1.656-0.276c0.655,0,1.256,0.101,1.8,0.3
		c0.544,0.2,1.056,0.604,1.536,1.212l-0.024-6.647h1.752v17.088H532.052z M531.932,116.813c-0.063-0.544-0.199-1.023-0.406-1.44
		c-0.207-0.415-0.506-0.751-0.896-1.008c-0.391-0.256-0.904-0.384-1.542-0.384c-0.637,0-1.151,0.128-1.542,0.384
		c-0.39,0.257-0.688,0.593-0.896,1.008c-0.207,0.417-0.347,0.896-0.418,1.44c-0.072,0.544-0.108,1.104-0.108,1.68
		s0.036,1.137,0.108,1.681c0.071,0.544,0.211,1.023,0.418,1.439s0.506,0.752,0.896,1.008c0.391,0.257,0.905,0.385,1.542,0.385
		c0.638,0,1.151-0.128,1.542-0.385c0.391-0.256,0.689-0.592,0.896-1.008s0.343-0.896,0.406-1.439s0.096-1.104,0.096-1.681
		S531.996,117.356,531.932,116.813z"/>
	<path d="M558.067,124.396v-7.272c0-1.056-0.26-1.844-0.779-2.363c-0.521-0.52-1.229-0.78-2.124-0.78
		c-0.896,0-1.608,0.264-2.137,0.792c-0.527,0.528-0.792,1.313-0.792,2.352v7.272h-1.728v-11.808h1.728v1.296
		c0.416-0.48,0.904-0.84,1.464-1.08c0.561-0.24,1.177-0.36,1.849-0.36c1.279,0,2.288,0.368,3.023,1.104
		c0.816,0.8,1.225,1.896,1.225,3.288v7.56H558.067z"/>
	<path d="M568.292,118.948c0,1.289,0.296,2.287,0.888,2.994c0.592,0.708,1.456,1.063,2.592,1.063c0.688,0,1.261-0.108,1.716-0.324
		c0.456-0.216,0.916-0.556,1.381-1.021l1.176,1.032c-0.305,0.306-0.604,0.572-0.9,0.8s-0.611,0.419-0.948,0.573
		c-0.336,0.154-0.708,0.272-1.115,0.354c-0.408,0.081-0.86,0.121-1.356,0.121c-0.784,0-1.492-0.119-2.124-0.359
		s-1.172-0.608-1.62-1.104c-0.448-0.495-0.796-1.124-1.044-1.884s-0.372-1.659-0.372-2.7c0-1.92,0.433-3.407,1.296-4.464
		c0.864-1.056,2.048-1.584,3.553-1.584c1.536,0,2.728,0.513,3.575,1.536c0.849,1.024,1.272,2.416,1.272,4.176v0.792H568.292z
		 M574.483,117.028c-0.016-0.176-0.035-0.336-0.06-0.479c-0.024-0.145-0.057-0.284-0.096-0.42c-0.04-0.136-0.093-0.284-0.156-0.444
		c-0.225-0.544-0.584-0.976-1.08-1.296s-1.056-0.48-1.68-0.48s-1.185,0.16-1.681,0.48s-0.855,0.752-1.08,1.296
		c-0.128,0.32-0.216,0.608-0.264,0.864s-0.08,0.624-0.096,1.104h6.24C574.515,117.412,574.499,117.205,574.483,117.028z"/>
	<path d="M586.458,124.396c-0.512,0-0.956-0.084-1.332-0.252s-0.688-0.396-0.936-0.684c-0.248-0.288-0.437-0.624-0.564-1.009
		c-0.128-0.384-0.191-0.792-0.191-1.224v-7.248h-1.488v-1.32h1.488v-3.695h1.728v3.695h2.521v1.32h-2.521v7.2
		c0,0.544,0.128,0.968,0.384,1.271c0.256,0.305,0.664,0.456,1.225,0.456h0.912v1.488H586.458z"/>
	<path d="M605.562,124.396h-1.607l-3.096-9.168l-3.072,9.168h-1.608l-3.744-11.808h1.872l2.712,9.479l3.097-9.479h1.487l3.12,9.479
		l2.688-9.479h1.872L605.562,124.396z"/>
	<path d="M623.551,121.072c-0.185,0.809-0.572,1.517-1.164,2.124c-0.416,0.416-0.904,0.744-1.464,0.984
		c-0.561,0.24-1.2,0.359-1.92,0.359c-0.721,0-1.36-0.119-1.92-0.359c-0.561-0.24-1.049-0.568-1.465-0.984
		c-0.304-0.304-0.548-0.636-0.731-0.996c-0.185-0.359-0.328-0.735-0.433-1.128c-0.104-0.392-0.176-0.804-0.216-1.235
		c-0.04-0.433-0.06-0.88-0.06-1.345c0-0.447,0.02-0.892,0.06-1.332c0.04-0.439,0.112-0.855,0.216-1.248
		c0.104-0.392,0.248-0.768,0.433-1.128c0.184-0.359,0.428-0.691,0.731-0.996c0.416-0.415,0.904-0.743,1.465-0.983
		c0.56-0.24,1.199-0.36,1.92-0.36c0.72,0,1.359,0.12,1.92,0.36c0.56,0.24,1.048,0.568,1.464,0.983
		c0.592,0.608,0.979,1.316,1.164,2.124c0.184,0.809,0.275,1.668,0.275,2.58S623.735,120.265,623.551,121.072z M622.075,117.484
		c-0.016-0.336-0.056-0.664-0.12-0.984c-0.063-0.319-0.159-0.619-0.287-0.899c-0.129-0.28-0.297-0.532-0.505-0.756
		c-0.575-0.576-1.296-0.864-2.159-0.864c-0.849,0-1.561,0.288-2.137,0.864c-0.224,0.224-0.396,0.476-0.516,0.756
		s-0.216,0.58-0.288,0.899c-0.072,0.32-0.116,0.648-0.132,0.984c-0.017,0.336-0.024,0.672-0.024,1.008s0.008,0.672,0.024,1.008
		c0.016,0.337,0.06,0.665,0.132,0.984c0.072,0.32,0.168,0.624,0.288,0.912s0.292,0.536,0.516,0.744
		c0.576,0.576,1.288,0.864,2.137,0.864c0.863,0,1.584-0.288,2.159-0.864c0.208-0.208,0.376-0.456,0.505-0.744
		c0.128-0.288,0.224-0.592,0.287-0.912c0.064-0.319,0.104-0.647,0.12-0.984c0.016-0.336,0.024-0.672,0.024-1.008
		S622.09,117.82,622.075,117.484z"/>
	<path d="M637.338,114.845c-0.32-0.32-0.624-0.544-0.912-0.672s-0.664-0.192-1.128-0.192c-0.432,0-0.824,0.08-1.176,0.24
		c-0.353,0.16-0.647,0.384-0.888,0.672s-0.429,0.624-0.564,1.008s-0.204,0.801-0.204,1.248v7.248h-1.728v-11.808h1.728v1.439
		c0.32-0.495,0.78-0.884,1.38-1.164c0.601-0.279,1.244-0.42,1.933-0.42c0.56,0,1.067,0.08,1.523,0.24s0.893,0.448,1.309,0.864
		L637.338,114.845z"/>
	<path d="M651.834,124.396l-3.743-6.048l-2.305,2.64v3.408h-1.728v-17.088h1.728v11.424l5.328-6.144h2.16l-4.008,4.512l4.704,7.296
		H651.834z"/>
	<path d="M660.043,109.229v-1.944h1.943v1.944H660.043z M660.139,124.396v-11.808h1.728v11.808H660.139z"/>
	<path d="M676.986,124.396v-7.272c0-1.056-0.26-1.844-0.779-2.363c-0.521-0.52-1.229-0.78-2.124-0.78
		c-0.896,0-1.608,0.264-2.137,0.792c-0.527,0.528-0.792,1.313-0.792,2.352v7.272h-1.728v-11.808h1.728v1.296
		c0.416-0.48,0.904-0.84,1.464-1.08c0.561-0.24,1.177-0.36,1.849-0.36c1.279,0,2.288,0.368,3.023,1.104
		c0.816,0.8,1.225,1.896,1.225,3.288v7.56H676.986z"/>
	<path d="M694.506,126.784c-0.225,0.616-0.544,1.148-0.96,1.597c-0.416,0.447-0.933,0.8-1.548,1.056
		c-0.616,0.256-1.309,0.384-2.076,0.384c-0.448,0-0.849-0.028-1.2-0.085c-0.353-0.058-0.684-0.15-0.996-0.28
		c-0.312-0.13-0.616-0.297-0.912-0.5s-0.596-0.451-0.899-0.742l1.128-1.104c0.207,0.192,0.411,0.36,0.611,0.504
		c0.2,0.145,0.408,0.268,0.624,0.372c0.217,0.104,0.452,0.18,0.708,0.229c0.256,0.048,0.553,0.071,0.889,0.071
		c0.576,0,1.067-0.095,1.476-0.285s0.744-0.444,1.008-0.761c0.265-0.318,0.456-0.694,0.576-1.131s0.18-0.908,0.18-1.415v-1.832
		c-0.479,0.599-0.992,1-1.535,1.205c-0.545,0.205-1.137,0.307-1.776,0.307c-0.608,0-1.156-0.096-1.644-0.287
		c-0.488-0.192-0.893-0.448-1.213-0.769c-0.592-0.592-0.979-1.32-1.164-2.184c-0.184-0.864-0.275-1.776-0.275-2.736
		s0.092-1.872,0.275-2.736c0.185-0.863,0.572-1.592,1.164-2.184c0.32-0.32,0.729-0.572,1.225-0.756
		c0.495-0.184,1.048-0.276,1.656-0.276c0.655,0,1.251,0.101,1.787,0.3c0.536,0.2,1.045,0.612,1.524,1.236v-1.392h1.704v12.168
		C694.842,125.492,694.73,126.168,694.506,126.784z M693.018,116.784c-0.064-0.537-0.2-1.011-0.408-1.42s-0.504-0.742-0.888-0.999
		c-0.384-0.256-0.896-0.385-1.536-0.385s-1.156,0.129-1.548,0.385c-0.393,0.257-0.692,0.59-0.9,0.999s-0.344,0.883-0.407,1.42
		c-0.064,0.537-0.097,1.079-0.097,1.624c0,0.563,0.032,1.107,0.097,1.637c0.063,0.529,0.199,0.999,0.407,1.408
		s0.508,0.742,0.9,0.998c0.392,0.257,0.908,0.386,1.548,0.386s1.152-0.129,1.536-0.386c0.384-0.256,0.68-0.589,0.888-0.998
		s0.344-0.879,0.408-1.408c0.063-0.529,0.096-1.074,0.096-1.637C693.114,117.863,693.082,117.321,693.018,116.784z"/>
	<path d="M713.682,113.98v10.416h-1.729V113.98h-1.512v-1.32h1.512v-2.231c0-0.433,0.06-0.84,0.18-1.225
		c0.12-0.384,0.309-0.72,0.564-1.008s0.567-0.516,0.936-0.684s0.809-0.252,1.32-0.252h1.248v1.487h-0.936
		c-0.561,0-0.965,0.152-1.213,0.456c-0.248,0.305-0.371,0.729-0.371,1.272v2.184h2.52v1.32H713.682z"/>
	<path d="M730.614,121.072c-0.185,0.809-0.572,1.517-1.164,2.124c-0.416,0.416-0.904,0.744-1.464,0.984
		c-0.561,0.24-1.2,0.359-1.92,0.359c-0.721,0-1.36-0.119-1.92-0.359c-0.561-0.24-1.049-0.568-1.465-0.984
		c-0.304-0.304-0.548-0.636-0.731-0.996c-0.185-0.359-0.328-0.735-0.433-1.128c-0.104-0.392-0.176-0.804-0.216-1.235
		c-0.04-0.433-0.06-0.88-0.06-1.345c0-0.447,0.02-0.892,0.06-1.332c0.04-0.439,0.112-0.855,0.216-1.248
		c0.104-0.392,0.248-0.768,0.433-1.128c0.184-0.359,0.428-0.691,0.731-0.996c0.416-0.415,0.904-0.743,1.465-0.983
		c0.56-0.24,1.199-0.36,1.92-0.36c0.72,0,1.359,0.12,1.92,0.36c0.56,0.24,1.048,0.568,1.464,0.983
		c0.592,0.608,0.979,1.316,1.164,2.124c0.184,0.809,0.275,1.668,0.275,2.58S730.797,120.265,730.614,121.072z M729.137,117.484
		c-0.016-0.336-0.056-0.664-0.12-0.984c-0.063-0.319-0.159-0.619-0.287-0.899c-0.129-0.28-0.297-0.532-0.505-0.756
		c-0.575-0.576-1.296-0.864-2.159-0.864c-0.849,0-1.561,0.288-2.137,0.864c-0.224,0.224-0.396,0.476-0.516,0.756
		s-0.216,0.58-0.288,0.899c-0.072,0.32-0.116,0.648-0.132,0.984c-0.017,0.336-0.024,0.672-0.024,1.008s0.008,0.672,0.024,1.008
		c0.016,0.337,0.06,0.665,0.132,0.984c0.072,0.32,0.168,0.624,0.288,0.912s0.292,0.536,0.516,0.744
		c0.576,0.576,1.288,0.864,2.137,0.864c0.863,0,1.584-0.288,2.159-0.864c0.208-0.208,0.376-0.456,0.505-0.744
		c0.128-0.288,0.224-0.592,0.287-0.912c0.064-0.319,0.104-0.647,0.12-0.984c0.016-0.336,0.024-0.672,0.024-1.008
		S729.153,117.82,729.137,117.484z"/>
	<path d="M744.402,114.845c-0.32-0.32-0.624-0.544-0.912-0.672s-0.664-0.192-1.128-0.192c-0.432,0-0.824,0.08-1.176,0.24
		c-0.353,0.16-0.647,0.384-0.888,0.672s-0.429,0.624-0.564,1.008s-0.204,0.801-0.204,1.248v7.248h-1.728v-11.808h1.728v1.439
		c0.32-0.495,0.78-0.884,1.38-1.164c0.601-0.279,1.244-0.42,1.933-0.42c0.56,0,1.067,0.08,1.523,0.24s0.893,0.448,1.309,0.864
		L744.402,114.845z"/>
	<path d="M767.01,124.396v-1.128c-0.48,0.479-0.973,0.813-1.477,0.996s-1.148,0.275-1.932,0.275c-0.816,0-1.484-0.084-2.004-0.252
		c-0.521-0.168-0.965-0.443-1.332-0.827c-0.288-0.288-0.509-0.645-0.66-1.068c-0.152-0.424-0.229-0.868-0.229-1.332
		c0-1.04,0.349-1.868,1.044-2.484c0.696-0.615,1.708-0.924,3.036-0.924h3.553v-1.128c0-0.864-0.232-1.512-0.696-1.944
		c-0.465-0.432-1.24-0.647-2.328-0.647c-0.768,0-1.368,0.1-1.8,0.3c-0.433,0.2-0.824,0.548-1.176,1.044l-1.177-1.08
		c0.528-0.688,1.116-1.151,1.765-1.392c0.647-0.24,1.452-0.36,2.412-0.36c1.6,0,2.787,0.332,3.563,0.996s1.164,1.645,1.164,2.94
		v8.016H767.01z M767.01,118.948h-3.313c-1.76,0-2.64,0.696-2.64,2.088c0,0.688,0.216,1.196,0.647,1.524
		c0.433,0.328,1.12,0.492,2.064,0.492c0.512,0,0.987-0.04,1.428-0.12c0.439-0.08,0.844-0.304,1.212-0.672
		c0.399-0.384,0.601-1.064,0.601-2.04V118.948z"/>
	<path d="M782.753,114.845c-0.32-0.32-0.624-0.544-0.912-0.672s-0.664-0.192-1.128-0.192c-0.432,0-0.824,0.08-1.176,0.24
		c-0.353,0.16-0.647,0.384-0.888,0.672s-0.429,0.624-0.564,1.008s-0.204,0.801-0.204,1.248v7.248h-1.728v-11.808h1.728v1.439
		c0.32-0.495,0.78-0.884,1.38-1.164c0.601-0.279,1.244-0.42,1.933-0.42c0.56,0,1.067,0.08,1.523,0.24s0.893,0.448,1.309,0.864
		L782.753,114.845z"/>
	<path d="M792.785,124.396c-0.512,0-0.956-0.084-1.332-0.252s-0.688-0.396-0.936-0.684c-0.248-0.288-0.437-0.624-0.564-1.009
		c-0.128-0.384-0.191-0.792-0.191-1.224v-7.248h-1.488v-1.32h1.488v-3.695h1.728v3.695h2.521v1.32h-2.521v7.2
		c0,0.544,0.128,0.968,0.384,1.271c0.256,0.305,0.664,0.456,1.225,0.456h0.912v1.488H792.785z"/>
	<path d="M800.561,109.229v-1.944h1.943v1.944H800.561z M800.657,124.396v-11.808h1.728v11.808H800.657z"/>
	<path d="M818.117,122.465c-0.232,0.439-0.561,0.815-0.984,1.128c-0.424,0.312-0.928,0.548-1.512,0.708
		c-0.584,0.159-1.236,0.239-1.956,0.239c-1.008,0-1.904-0.128-2.688-0.384c-0.784-0.256-1.505-0.695-2.16-1.319l1.151-1.152
		c0.464,0.496,1.009,0.849,1.633,1.056c0.624,0.208,1.304,0.313,2.04,0.313c0.976,0,1.743-0.172,2.304-0.517
		c0.56-0.344,0.84-0.867,0.84-1.571c0-0.513-0.156-0.912-0.468-1.2c-0.313-0.288-0.813-0.464-1.5-0.528l-1.944-0.168
		c-1.152-0.096-2.028-0.403-2.628-0.924c-0.6-0.52-0.9-1.268-0.9-2.244c0-0.544,0.108-1.027,0.324-1.452
		c0.216-0.424,0.517-0.783,0.9-1.08c0.384-0.296,0.844-0.523,1.38-0.684s1.116-0.24,1.74-0.24c0.848,0,1.636,0.104,2.363,0.313
		c0.729,0.208,1.356,0.527,1.885,0.96l-1.128,1.128c-0.417-0.32-0.893-0.556-1.429-0.708s-1.107-0.229-1.716-0.229
		c-0.864,0-1.521,0.173-1.968,0.517c-0.448,0.344-0.672,0.819-0.672,1.428c0,0.512,0.156,0.912,0.468,1.2s0.844,0.464,1.596,0.527
		l1.896,0.168c0.512,0.049,0.983,0.137,1.416,0.265c0.432,0.128,0.8,0.32,1.104,0.576s0.54,0.575,0.708,0.96
		c0.168,0.384,0.252,0.848,0.252,1.392C818.464,121.517,818.348,122.024,818.117,122.465z"/>
	<path d="M828.136,124.396c-0.512,0-0.956-0.084-1.332-0.252s-0.688-0.396-0.936-0.684c-0.248-0.288-0.437-0.624-0.564-1.009
		c-0.128-0.384-0.191-0.792-0.191-1.224v-7.248h-1.488v-1.32h1.488v-3.695h1.728v3.695h2.521v1.32h-2.521v7.2
		c0,0.544,0.128,0.968,0.384,1.271c0.256,0.305,0.664,0.456,1.225,0.456h0.912v1.488H828.136z"/>
	<path d="M844.18,122.465c-0.232,0.439-0.561,0.815-0.984,1.128c-0.424,0.312-0.928,0.548-1.512,0.708
		c-0.584,0.159-1.236,0.239-1.956,0.239c-1.008,0-1.904-0.128-2.688-0.384c-0.784-0.256-1.505-0.695-2.16-1.319l1.151-1.152
		c0.464,0.496,1.009,0.849,1.633,1.056c0.624,0.208,1.304,0.313,2.04,0.313c0.976,0,1.743-0.172,2.304-0.517
		c0.56-0.344,0.84-0.867,0.84-1.571c0-0.513-0.156-0.912-0.468-1.2c-0.313-0.288-0.813-0.464-1.5-0.528l-1.944-0.168
		c-1.152-0.096-2.028-0.403-2.628-0.924c-0.6-0.52-0.9-1.268-0.9-2.244c0-0.544,0.108-1.027,0.324-1.452
		c0.216-0.424,0.517-0.783,0.9-1.08c0.384-0.296,0.844-0.523,1.38-0.684s1.116-0.24,1.74-0.24c0.848,0,1.636,0.104,2.363,0.313
		c0.729,0.208,1.356,0.527,1.885,0.96l-1.128,1.128c-0.417-0.32-0.893-0.556-1.429-0.708s-1.107-0.229-1.716-0.229
		c-0.864,0-1.521,0.173-1.968,0.517c-0.448,0.344-0.672,0.819-0.672,1.428c0,0.512,0.156,0.912,0.468,1.2s0.844,0.464,1.596,0.527
		l1.896,0.168c0.512,0.049,0.983,0.137,1.416,0.265c0.432,0.128,0.8,0.32,1.104,0.576s0.54,0.575,0.708,0.96
		c0.168,0.384,0.252,0.848,0.252,1.392C844.528,121.517,844.412,122.024,844.18,122.465z"/>
</g>
<g>
</g>
<g>
</g>
<g>
</g>
<g>
</g>
<g>
</g>
<g>
</g>
</svg>
